<svg  width="24" height="24" viewBox="0 0 24 24" fill="none" xmlns="http://www.w3.org/2000/svg">
<path fill-rule="evenodd" clip-rule="evenodd" d="M11.4075 1.19443C11.76 0.93519 12.24 0.93519 12.5925 1.19443L15.24 3.14168C16.8306 4.3116 17.9158 6.01457 18.3221 7.90784L21.2071 10.7929C21.3946 10.9804 21.5 11.2348 21.5 11.5V15.5C21.5 15.8466 21.3205 16.1684 21.0257 16.3507C20.7309 16.5329 20.3628 16.5494 20.0528 16.3944L18.5 15.618V18.5C18.5 19.0523 18.0523 19.5 17.5 19.5H16V21C16 21.5523 15.5523 22 15 22C14.4477 22 14 21.5523 14 21V19.5H13V22C13 22.5523 12.5523 23 12 23C11.4477 23 11 22.5523 11 22V19.5H10V21C10 21.5523 9.55228 22 9 22C8.44772 22 8 21.5523 8 21V19.5H6.5C5.94772 19.5 5.5 19.0523 5.5 18.5V15.618L3.94721 16.3944C3.63723 16.5494 3.26909 16.5329 2.97427 16.3507C2.67945 16.1684 2.5 15.8466 2.5 15.5V11.5C2.5 11.2348 2.60536 10.9804 2.79289 10.7929L5.67795 7.90784C6.08421 6.01457 7.16936 4.3116 8.76 3.14168L11.4075 1.19443ZM7.5 9.58624V17.5H16.5V9.58624C16.5 7.67796 15.5923 5.88347 14.055 4.75282L12 3.24136L9.945 4.75282C8.40775 5.88347 7.5 7.67796 7.5 9.58624ZM5.5 10.9142V13.382L4.5 13.882V11.9142L5.5 10.9142ZM18.5 13.382L19.5 13.882V11.9142L18.5 10.9142V13.382Z" fill="black" fill-opacity="0.85"/>
<path d="M16.5 17.4999H7.5V9.58609C7.5 7.67781 8.40775 5.88333 9.945 4.75267L12 3.24121L14.055 4.75267C15.5923 5.88333 16.5 7.67781 16.5 9.58609V17.4999Z" fill="#EE5350"/>
</svg>
