<svg width="24" height="24" viewBox="0 0 24 24" fill="none" xmlns="http://www.w3.org/2000/svg">
<path d="M18 13C18 12.4477 17.5523 12 17 12H7L6.88338 12.0067C6.38604 12.0645 6 12.4872 6 13C6 13.5523 6.44772 14 7 14H17L17.1166 13.9933C17.614 13.9355 18 13.5128 18 13Z" fill="black" fill-opacity="0.85"/>
<path d="M13.0042 17C13.0042 16.4477 12.5564 16 12.0042 16H7L6.88338 16.0067C6.38604 16.0645 6 16.4872 6 17C6 17.5523 6.44772 18 7 18H12.0042L12.1208 17.9933C12.6181 17.9355 13.0042 17.5128 13.0042 17Z" fill="black" fill-opacity="0.85"/>
<path fill-rule="evenodd" clip-rule="evenodd" d="M4.5 2C3.11929 2 2 3.11929 2 4.5V19.5C2 20.8807 3.11928 22 4.5 22H19.5C20.8807 22 22 20.8807 22 19.5V6.60325C22 6.32613 21.885 6.06143 21.6824 5.87231L17.8249 2.2707C17.646 2.10282 17.4054 2 17.1407 2H4.5ZM13.003 4H16.747L20 7.038V19.5C20 19.7762 19.7762 20 19.5 20H4.5C4.22385 20 4 19.7762 4 19.5V4.5C4 4.22386 4.22386 4 4.5 4H6V6.6923C6 7.5432 6.74229 8 7.5 8H11.5C12.2577 8 13 7.5432 13 6.6923L13.003 4ZM8 4V6H11.001L11.003 4H8Z" fill="black" fill-opacity="0.85"/>
<path d="M8 6V4H11.003L11.001 6H8Z" />
<path fill-rule="evenodd" clip-rule="evenodd" d="M16.747 4H13.003L13 6.6923C13 7.5432 12.2577 8 11.5 8H7.5C6.74229 8 6 7.5432 6 6.6923V4H4.5C4.22386 4 4 4.22386 4 4.5V19.5C4 19.7762 4.22385 20 4.5 20H19.5C19.7762 20 20 19.7762 20 19.5V7.038L16.747 4ZM17 12C17.5523 12 18 12.4477 18 13C18 13.5128 17.614 13.9355 17.1166 13.9933L17 14H7C6.44772 14 6 13.5523 6 13C6 12.4872 6.38604 12.0645 6.88338 12.0067L7 12H17ZM12.0042 16C12.5564 16 13.0042 16.4477 13.0042 17C13.0042 17.5128 12.6181 17.9355 12.1208 17.9933L12.0042 18H7C6.44772 18 6 17.5523 6 17C6 16.4872 6.38604 16.0645 6.88338 16.0067L7 16H12.0042Z" />
</svg>
